<mxfile host="app.diagrams.net" agent="Mozilla/5.0 (Windows NT 10.0; Win64; x64) AppleWebKit/537.36 (KHTML, like Gecko) Chrome/140.0.0.0 Safari/537.36" version="28.2.1">
  <diagram name="Страница — 1" id="z0ecgYr1cCSHMroVWlVe">
    <mxGraphModel dx="1226" dy="671" grid="1" gridSize="10" guides="1" tooltips="1" connect="1" arrows="1" fold="1" page="1" pageScale="1" pageWidth="827" pageHeight="1169" math="0" shadow="0">
      <root>
        <mxCell id="0" />
        <mxCell id="1" parent="0" />
        <mxCell id="BWKY8L1YfcoRBt6SnVh--1" value="зарегистрироваться" style="ellipse;whiteSpace=wrap;html=1;" vertex="1" parent="1">
          <mxGeometry x="980" y="230" width="120" height="80" as="geometry" />
        </mxCell>
        <mxCell id="BWKY8L1YfcoRBt6SnVh--2" style="rounded=0;orthogonalLoop=1;jettySize=auto;html=1;exitX=0.5;exitY=0.5;exitDx=0;exitDy=0;exitPerimeter=0;endArrow=none;endFill=0;" edge="1" parent="1" source="BWKY8L1YfcoRBt6SnVh--3" target="BWKY8L1YfcoRBt6SnVh--1">
          <mxGeometry relative="1" as="geometry" />
        </mxCell>
        <mxCell id="BWKY8L1YfcoRBt6SnVh--3" value="гость" style="shape=umlActor;verticalLabelPosition=bottom;verticalAlign=top;html=1;outlineConnect=0;" vertex="1" parent="1">
          <mxGeometry x="910" y="210" width="30" height="60" as="geometry" />
        </mxCell>
        <mxCell id="BWKY8L1YfcoRBt6SnVh--4" style="rounded=0;orthogonalLoop=1;jettySize=auto;html=1;dashed=1;" edge="1" parent="1" source="BWKY8L1YfcoRBt6SnVh--1" target="BWKY8L1YfcoRBt6SnVh--8">
          <mxGeometry relative="1" as="geometry">
            <mxPoint x="1320" y="299.84000000000003" as="sourcePoint" />
          </mxGeometry>
        </mxCell>
        <mxCell id="BWKY8L1YfcoRBt6SnVh--5" value="&quot;include&quot;" style="edgeLabel;html=1;align=center;verticalAlign=middle;resizable=0;points=[];" vertex="1" connectable="0" parent="BWKY8L1YfcoRBt6SnVh--4">
          <mxGeometry x="-0.1185" y="-4" relative="1" as="geometry">
            <mxPoint as="offset" />
          </mxGeometry>
        </mxCell>
        <mxCell id="BWKY8L1YfcoRBt6SnVh--6" style="rounded=0;orthogonalLoop=1;jettySize=auto;html=1;dashed=1;" edge="1" parent="1" source="BWKY8L1YfcoRBt6SnVh--1" target="BWKY8L1YfcoRBt6SnVh--9">
          <mxGeometry relative="1" as="geometry">
            <mxPoint x="1492.25" y="458" as="sourcePoint" />
          </mxGeometry>
        </mxCell>
        <mxCell id="BWKY8L1YfcoRBt6SnVh--7" value="&quot;include&quot;" style="edgeLabel;html=1;align=center;verticalAlign=middle;resizable=0;points=[];" vertex="1" connectable="0" parent="BWKY8L1YfcoRBt6SnVh--6">
          <mxGeometry x="-0.334" y="-2" relative="1" as="geometry">
            <mxPoint as="offset" />
          </mxGeometry>
        </mxCell>
        <mxCell id="BWKY8L1YfcoRBt6SnVh--8" value="ввести логин" style="ellipse;whiteSpace=wrap;html=1;" vertex="1" parent="1">
          <mxGeometry x="1040" y="80" width="120" height="80" as="geometry" />
        </mxCell>
        <mxCell id="BWKY8L1YfcoRBt6SnVh--9" value="ввести пароль" style="ellipse;whiteSpace=wrap;html=1;" vertex="1" parent="1">
          <mxGeometry x="1230" y="80" width="120" height="80" as="geometry" />
        </mxCell>
        <mxCell id="BWKY8L1YfcoRBt6SnVh--10" style="edgeStyle=none;curved=1;rounded=0;orthogonalLoop=1;jettySize=auto;html=1;exitX=0.5;exitY=0.5;exitDx=0;exitDy=0;exitPerimeter=0;fontSize=12;startSize=8;endSize=8;endArrow=none;endFill=0;" edge="1" parent="1" source="BWKY8L1YfcoRBt6SnVh--11" target="BWKY8L1YfcoRBt6SnVh--14">
          <mxGeometry relative="1" as="geometry" />
        </mxCell>
        <mxCell id="BWKY8L1YfcoRBt6SnVh--11" value="поставщик" style="shape=umlActor;verticalLabelPosition=bottom;verticalAlign=top;html=1;outlineConnect=0;" vertex="1" parent="1">
          <mxGeometry x="190" y="340" width="30" height="60" as="geometry" />
        </mxCell>
        <mxCell id="BWKY8L1YfcoRBt6SnVh--12" value="добавить партию товара" style="ellipse;whiteSpace=wrap;html=1;" vertex="1" parent="1">
          <mxGeometry x="310" y="270" width="120" height="80" as="geometry" />
        </mxCell>
        <mxCell id="BWKY8L1YfcoRBt6SnVh--13" value="войти в учетку" style="ellipse;whiteSpace=wrap;html=1;" vertex="1" parent="1">
          <mxGeometry x="380" y="470" width="120" height="80" as="geometry" />
        </mxCell>
        <mxCell id="BWKY8L1YfcoRBt6SnVh--14" value="изменить статус доставки" style="ellipse;whiteSpace=wrap;html=1;" vertex="1" parent="1">
          <mxGeometry x="110" y="160" width="120" height="80" as="geometry" />
        </mxCell>
        <mxCell id="BWKY8L1YfcoRBt6SnVh--15" style="edgeStyle=none;curved=1;rounded=0;orthogonalLoop=1;jettySize=auto;html=1;exitX=0.5;exitY=0.5;exitDx=0;exitDy=0;exitPerimeter=0;fontSize=12;startSize=8;endSize=8;endArrow=none;endFill=0;" edge="1" parent="1" source="BWKY8L1YfcoRBt6SnVh--16" target="BWKY8L1YfcoRBt6SnVh--73">
          <mxGeometry relative="1" as="geometry" />
        </mxCell>
        <mxCell id="BWKY8L1YfcoRBt6SnVh--16" value="магазин" style="shape=umlActor;verticalLabelPosition=bottom;verticalAlign=top;html=1;outlineConnect=0;" vertex="1" parent="1">
          <mxGeometry x="730" y="580" width="30" height="60" as="geometry" />
        </mxCell>
        <mxCell id="BWKY8L1YfcoRBt6SnVh--17" value="посмотреть товары поставщиков" style="ellipse;whiteSpace=wrap;html=1;" vertex="1" parent="1">
          <mxGeometry x="800" y="320" width="120" height="80" as="geometry" />
        </mxCell>
        <mxCell id="BWKY8L1YfcoRBt6SnVh--18" value="заказать товар" style="ellipse;whiteSpace=wrap;html=1;" vertex="1" parent="1">
          <mxGeometry x="250" y="810" width="120" height="80" as="geometry" />
        </mxCell>
        <mxCell id="BWKY8L1YfcoRBt6SnVh--19" value="оставить отзыв на поставщика" style="ellipse;whiteSpace=wrap;html=1;" vertex="1" parent="1">
          <mxGeometry x="707" y="260" width="120" height="80" as="geometry" />
        </mxCell>
        <mxCell id="BWKY8L1YfcoRBt6SnVh--20" value="посмотреть отзывы на поставщика" style="ellipse;whiteSpace=wrap;html=1;" vertex="1" parent="1">
          <mxGeometry x="810" y="450" width="120" height="80" as="geometry" />
        </mxCell>
        <mxCell id="BWKY8L1YfcoRBt6SnVh--21" value="пожаловаться на поставщика" style="ellipse;whiteSpace=wrap;html=1;" vertex="1" parent="1">
          <mxGeometry x="670" y="820" width="120" height="80" as="geometry" />
        </mxCell>
        <mxCell id="BWKY8L1YfcoRBt6SnVh--22" style="rounded=0;orthogonalLoop=1;jettySize=auto;html=1;dashed=1;" edge="1" parent="1" source="BWKY8L1YfcoRBt6SnVh--13" target="BWKY8L1YfcoRBt6SnVh--26">
          <mxGeometry relative="1" as="geometry">
            <mxPoint x="450" y="366" as="sourcePoint" />
          </mxGeometry>
        </mxCell>
        <mxCell id="BWKY8L1YfcoRBt6SnVh--23" value="&quot;include&quot;" style="edgeLabel;html=1;align=center;verticalAlign=middle;resizable=0;points=[];" vertex="1" connectable="0" parent="BWKY8L1YfcoRBt6SnVh--22">
          <mxGeometry x="-0.1185" y="-4" relative="1" as="geometry">
            <mxPoint as="offset" />
          </mxGeometry>
        </mxCell>
        <mxCell id="BWKY8L1YfcoRBt6SnVh--24" style="rounded=0;orthogonalLoop=1;jettySize=auto;html=1;dashed=1;" edge="1" parent="1" source="BWKY8L1YfcoRBt6SnVh--13" target="BWKY8L1YfcoRBt6SnVh--27">
          <mxGeometry relative="1" as="geometry">
            <mxPoint x="460" y="400" as="sourcePoint" />
          </mxGeometry>
        </mxCell>
        <mxCell id="BWKY8L1YfcoRBt6SnVh--25" value="&quot;include&quot;" style="edgeLabel;html=1;align=center;verticalAlign=middle;resizable=0;points=[];" vertex="1" connectable="0" parent="BWKY8L1YfcoRBt6SnVh--24">
          <mxGeometry x="-0.334" y="-2" relative="1" as="geometry">
            <mxPoint as="offset" />
          </mxGeometry>
        </mxCell>
        <mxCell id="BWKY8L1YfcoRBt6SnVh--26" value="ввести логин" style="ellipse;whiteSpace=wrap;html=1;" vertex="1" parent="1">
          <mxGeometry x="199.9999999999999" y="490" width="120" height="80" as="geometry" />
        </mxCell>
        <mxCell id="BWKY8L1YfcoRBt6SnVh--27" value="ввести пароль" style="ellipse;whiteSpace=wrap;html=1;" vertex="1" parent="1">
          <mxGeometry x="439.9999999999999" y="570" width="120" height="80" as="geometry" />
        </mxCell>
        <mxCell id="BWKY8L1YfcoRBt6SnVh--28" style="edgeStyle=none;curved=1;rounded=0;orthogonalLoop=1;jettySize=auto;html=1;fontSize=12;startSize=8;endSize=8;endArrow=none;endFill=0;exitX=0.5;exitY=0.5;exitDx=0;exitDy=0;exitPerimeter=0;" edge="1" parent="1" source="BWKY8L1YfcoRBt6SnVh--11" target="BWKY8L1YfcoRBt6SnVh--49">
          <mxGeometry relative="1" as="geometry">
            <mxPoint x="30" y="380" as="sourcePoint" />
            <mxPoint x="71" y="491" as="targetPoint" />
          </mxGeometry>
        </mxCell>
        <mxCell id="BWKY8L1YfcoRBt6SnVh--29" style="edgeStyle=none;curved=1;rounded=0;orthogonalLoop=1;jettySize=auto;html=1;exitX=0.5;exitY=0.5;exitDx=0;exitDy=0;exitPerimeter=0;fontSize=12;startSize=8;endSize=8;endArrow=none;endFill=0;" edge="1" parent="1" source="BWKY8L1YfcoRBt6SnVh--11" target="BWKY8L1YfcoRBt6SnVh--12">
          <mxGeometry relative="1" as="geometry">
            <mxPoint x="20" y="370" as="sourcePoint" />
            <mxPoint x="61" y="481" as="targetPoint" />
          </mxGeometry>
        </mxCell>
        <mxCell id="BWKY8L1YfcoRBt6SnVh--30" style="edgeStyle=none;curved=1;rounded=0;orthogonalLoop=1;jettySize=auto;html=1;exitX=0.5;exitY=0.5;exitDx=0;exitDy=0;exitPerimeter=0;fontSize=12;startSize=8;endSize=8;endArrow=none;endFill=0;" edge="1" parent="1" source="BWKY8L1YfcoRBt6SnVh--11" target="BWKY8L1YfcoRBt6SnVh--13">
          <mxGeometry relative="1" as="geometry">
            <mxPoint x="250" y="450" as="sourcePoint" />
            <mxPoint x="285.35873633397637" y="436.5238185656701" as="targetPoint" />
          </mxGeometry>
        </mxCell>
        <mxCell id="BWKY8L1YfcoRBt6SnVh--31" style="edgeStyle=none;curved=1;rounded=0;orthogonalLoop=1;jettySize=auto;html=1;exitX=0.5;exitY=0.5;exitDx=0;exitDy=0;exitPerimeter=0;fontSize=12;startSize=8;endSize=8;endArrow=none;endFill=0;" edge="1" parent="1" source="BWKY8L1YfcoRBt6SnVh--16" target="BWKY8L1YfcoRBt6SnVh--21">
          <mxGeometry relative="1" as="geometry">
            <mxPoint x="610" y="610" as="sourcePoint" />
            <mxPoint x="651" y="721" as="targetPoint" />
          </mxGeometry>
        </mxCell>
        <mxCell id="BWKY8L1YfcoRBt6SnVh--32" style="edgeStyle=none;curved=1;rounded=0;orthogonalLoop=1;jettySize=auto;html=1;exitX=0.5;exitY=0.5;exitDx=0;exitDy=0;exitPerimeter=0;fontSize=12;startSize=8;endSize=8;endArrow=none;endFill=0;" edge="1" parent="1" source="BWKY8L1YfcoRBt6SnVh--16" target="BWKY8L1YfcoRBt6SnVh--17">
          <mxGeometry relative="1" as="geometry">
            <mxPoint x="570" y="680" as="sourcePoint" />
            <mxPoint x="611" y="791" as="targetPoint" />
          </mxGeometry>
        </mxCell>
        <mxCell id="BWKY8L1YfcoRBt6SnVh--33" style="edgeStyle=none;curved=1;rounded=0;orthogonalLoop=1;jettySize=auto;html=1;fontSize=12;startSize=8;endSize=8;endArrow=none;endFill=0;exitX=0.5;exitY=0.5;exitDx=0;exitDy=0;exitPerimeter=0;" edge="1" parent="1" source="BWKY8L1YfcoRBt6SnVh--16" target="BWKY8L1YfcoRBt6SnVh--19">
          <mxGeometry relative="1" as="geometry">
            <mxPoint x="730" y="600" as="sourcePoint" />
            <mxPoint x="421" y="721" as="targetPoint" />
          </mxGeometry>
        </mxCell>
        <mxCell id="BWKY8L1YfcoRBt6SnVh--34" style="edgeStyle=none;curved=1;rounded=0;orthogonalLoop=1;jettySize=auto;html=1;exitX=0.5;exitY=0.5;exitDx=0;exitDy=0;exitPerimeter=0;fontSize=12;startSize=8;endSize=8;endArrow=none;endFill=0;" edge="1" parent="1" source="BWKY8L1YfcoRBt6SnVh--16" target="BWKY8L1YfcoRBt6SnVh--20">
          <mxGeometry relative="1" as="geometry">
            <mxPoint x="720" y="440" as="sourcePoint" />
            <mxPoint x="761" y="551" as="targetPoint" />
          </mxGeometry>
        </mxCell>
        <mxCell id="BWKY8L1YfcoRBt6SnVh--35" style="edgeStyle=none;curved=1;rounded=0;orthogonalLoop=1;jettySize=auto;html=1;exitX=0.5;exitY=0.5;exitDx=0;exitDy=0;exitPerimeter=0;fontSize=12;startSize=8;endSize=8;endArrow=none;endFill=0;" edge="1" parent="1" source="BWKY8L1YfcoRBt6SnVh--16" target="BWKY8L1YfcoRBt6SnVh--13">
          <mxGeometry relative="1" as="geometry">
            <mxPoint x="590" y="314.5" as="sourcePoint" />
            <mxPoint x="631" y="425.5" as="targetPoint" />
          </mxGeometry>
        </mxCell>
        <mxCell id="BWKY8L1YfcoRBt6SnVh--36" style="rounded=0;orthogonalLoop=1;jettySize=auto;html=1;dashed=1;" edge="1" parent="1" source="BWKY8L1YfcoRBt6SnVh--12" target="BWKY8L1YfcoRBt6SnVh--40">
          <mxGeometry relative="1" as="geometry">
            <mxPoint x="309.9960529094642" y="339.7191949374651" as="sourcePoint" />
          </mxGeometry>
        </mxCell>
        <mxCell id="BWKY8L1YfcoRBt6SnVh--37" value="&quot;include&quot;" style="edgeLabel;html=1;align=center;verticalAlign=middle;resizable=0;points=[];" vertex="1" connectable="0" parent="BWKY8L1YfcoRBt6SnVh--36">
          <mxGeometry x="-0.1185" y="-4" relative="1" as="geometry">
            <mxPoint as="offset" />
          </mxGeometry>
        </mxCell>
        <mxCell id="BWKY8L1YfcoRBt6SnVh--38" style="rounded=0;orthogonalLoop=1;jettySize=auto;html=1;dashed=1;" edge="1" parent="1" source="BWKY8L1YfcoRBt6SnVh--12" target="BWKY8L1YfcoRBt6SnVh--41">
          <mxGeometry relative="1" as="geometry">
            <mxPoint x="333.28" y="275" as="sourcePoint" />
          </mxGeometry>
        </mxCell>
        <mxCell id="BWKY8L1YfcoRBt6SnVh--39" value="&quot;include&quot;" style="edgeLabel;html=1;align=center;verticalAlign=middle;resizable=0;points=[];" vertex="1" connectable="0" parent="BWKY8L1YfcoRBt6SnVh--38">
          <mxGeometry x="-0.334" y="-2" relative="1" as="geometry">
            <mxPoint as="offset" />
          </mxGeometry>
        </mxCell>
        <mxCell id="BWKY8L1YfcoRBt6SnVh--40" value="ввести минимальное количество" style="ellipse;whiteSpace=wrap;html=1;" vertex="1" parent="1">
          <mxGeometry x="429.9999999999999" y="120" width="120" height="80" as="geometry" />
        </mxCell>
        <mxCell id="BWKY8L1YfcoRBt6SnVh--41" value="ввести ваименование" style="ellipse;whiteSpace=wrap;html=1;" vertex="1" parent="1">
          <mxGeometry x="459.9999999999999" y="350" width="120" height="80" as="geometry" />
        </mxCell>
        <mxCell id="BWKY8L1YfcoRBt6SnVh--42" style="rounded=0;orthogonalLoop=1;jettySize=auto;html=1;dashed=1;" edge="1" parent="1" source="BWKY8L1YfcoRBt6SnVh--12" target="BWKY8L1YfcoRBt6SnVh--46">
          <mxGeometry relative="1" as="geometry">
            <mxPoint x="574" y="294" as="sourcePoint" />
          </mxGeometry>
        </mxCell>
        <mxCell id="BWKY8L1YfcoRBt6SnVh--43" value="&quot;include&quot;" style="edgeLabel;html=1;align=center;verticalAlign=middle;resizable=0;points=[];" vertex="1" connectable="0" parent="BWKY8L1YfcoRBt6SnVh--42">
          <mxGeometry x="-0.1185" y="-4" relative="1" as="geometry">
            <mxPoint as="offset" />
          </mxGeometry>
        </mxCell>
        <mxCell id="BWKY8L1YfcoRBt6SnVh--44" style="rounded=0;orthogonalLoop=1;jettySize=auto;html=1;dashed=1;" edge="1" parent="1" source="BWKY8L1YfcoRBt6SnVh--12" target="BWKY8L1YfcoRBt6SnVh--47">
          <mxGeometry relative="1" as="geometry">
            <mxPoint x="570" y="315" as="sourcePoint" />
          </mxGeometry>
        </mxCell>
        <mxCell id="BWKY8L1YfcoRBt6SnVh--45" value="&quot;include&quot;" style="edgeLabel;html=1;align=center;verticalAlign=middle;resizable=0;points=[];" vertex="1" connectable="0" parent="BWKY8L1YfcoRBt6SnVh--44">
          <mxGeometry x="-0.334" y="-2" relative="1" as="geometry">
            <mxPoint as="offset" />
          </mxGeometry>
        </mxCell>
        <mxCell id="BWKY8L1YfcoRBt6SnVh--46" value="ввести характеристики товара" style="ellipse;whiteSpace=wrap;html=1;" vertex="1" parent="1">
          <mxGeometry x="629.9999999999999" y="100" width="120" height="80" as="geometry" />
        </mxCell>
        <mxCell id="BWKY8L1YfcoRBt6SnVh--47" value="ввести дату производства" style="ellipse;whiteSpace=wrap;html=1;" vertex="1" parent="1">
          <mxGeometry x="559.9999999999999" y="250" width="120" height="80" as="geometry" />
        </mxCell>
        <mxCell id="BWKY8L1YfcoRBt6SnVh--48" value="" style="edgeStyle=none;curved=1;rounded=0;orthogonalLoop=1;jettySize=auto;html=1;exitX=0.5;exitY=0.5;exitDx=0;exitDy=0;exitPerimeter=0;fontSize=12;startSize=8;endSize=8;endArrow=none;endFill=0;" edge="1" parent="1" source="BWKY8L1YfcoRBt6SnVh--11" target="BWKY8L1YfcoRBt6SnVh--49">
          <mxGeometry relative="1" as="geometry">
            <mxPoint x="115" y="500" as="sourcePoint" />
            <mxPoint x="361" y="532" as="targetPoint" />
          </mxGeometry>
        </mxCell>
        <mxCell id="BWKY8L1YfcoRBt6SnVh--49" value="удалить партию товара" style="ellipse;whiteSpace=wrap;html=1;" vertex="1" parent="1">
          <mxGeometry x="270" y="160" width="120" height="80" as="geometry" />
        </mxCell>
        <mxCell id="BWKY8L1YfcoRBt6SnVh--50" style="rounded=0;orthogonalLoop=1;jettySize=auto;html=1;dashed=1;" edge="1" parent="1" source="BWKY8L1YfcoRBt6SnVh--21" target="BWKY8L1YfcoRBt6SnVh--54">
          <mxGeometry relative="1" as="geometry">
            <mxPoint x="464" y="884" as="sourcePoint" />
          </mxGeometry>
        </mxCell>
        <mxCell id="BWKY8L1YfcoRBt6SnVh--51" value="&quot;include&quot;" style="edgeLabel;html=1;align=center;verticalAlign=middle;resizable=0;points=[];" vertex="1" connectable="0" parent="BWKY8L1YfcoRBt6SnVh--50">
          <mxGeometry x="-0.1185" y="-4" relative="1" as="geometry">
            <mxPoint as="offset" />
          </mxGeometry>
        </mxCell>
        <mxCell id="BWKY8L1YfcoRBt6SnVh--52" style="rounded=0;orthogonalLoop=1;jettySize=auto;html=1;dashed=1;" edge="1" parent="1" source="BWKY8L1YfcoRBt6SnVh--19" target="BWKY8L1YfcoRBt6SnVh--55">
          <mxGeometry relative="1" as="geometry">
            <mxPoint x="460" y="905" as="sourcePoint" />
          </mxGeometry>
        </mxCell>
        <mxCell id="BWKY8L1YfcoRBt6SnVh--53" value="&quot;include&quot;" style="edgeLabel;html=1;align=center;verticalAlign=middle;resizable=0;points=[];" vertex="1" connectable="0" parent="BWKY8L1YfcoRBt6SnVh--52">
          <mxGeometry x="-0.334" y="-2" relative="1" as="geometry">
            <mxPoint as="offset" />
          </mxGeometry>
        </mxCell>
        <mxCell id="BWKY8L1YfcoRBt6SnVh--54" value="написать причину жалобы" style="ellipse;whiteSpace=wrap;html=1;" vertex="1" parent="1">
          <mxGeometry x="729.9999999999999" y="940" width="120" height="80" as="geometry" />
        </mxCell>
        <mxCell id="BWKY8L1YfcoRBt6SnVh--55" value="ввести текст отзыва" style="ellipse;whiteSpace=wrap;html=1;" vertex="1" parent="1">
          <mxGeometry x="879.9999999999999" y="70" width="120" height="80" as="geometry" />
        </mxCell>
        <mxCell id="BWKY8L1YfcoRBt6SnVh--56" style="rounded=0;orthogonalLoop=1;jettySize=auto;html=1;dashed=1;" edge="1" parent="1" source="BWKY8L1YfcoRBt6SnVh--18" target="BWKY8L1YfcoRBt6SnVh--60">
          <mxGeometry relative="1" as="geometry">
            <mxPoint x="-6" y="814" as="sourcePoint" />
          </mxGeometry>
        </mxCell>
        <mxCell id="BWKY8L1YfcoRBt6SnVh--57" value="&quot;include&quot;" style="edgeLabel;html=1;align=center;verticalAlign=middle;resizable=0;points=[];" vertex="1" connectable="0" parent="BWKY8L1YfcoRBt6SnVh--56">
          <mxGeometry x="-0.1185" y="-4" relative="1" as="geometry">
            <mxPoint as="offset" />
          </mxGeometry>
        </mxCell>
        <mxCell id="BWKY8L1YfcoRBt6SnVh--58" style="rounded=0;orthogonalLoop=1;jettySize=auto;html=1;dashed=1;" edge="1" parent="1" source="BWKY8L1YfcoRBt6SnVh--18" target="BWKY8L1YfcoRBt6SnVh--61">
          <mxGeometry relative="1" as="geometry">
            <mxPoint x="-10" y="835" as="sourcePoint" />
          </mxGeometry>
        </mxCell>
        <mxCell id="BWKY8L1YfcoRBt6SnVh--59" value="&quot;include&quot;" style="edgeLabel;html=1;align=center;verticalAlign=middle;resizable=0;points=[];" vertex="1" connectable="0" parent="BWKY8L1YfcoRBt6SnVh--58">
          <mxGeometry x="-0.334" y="-2" relative="1" as="geometry">
            <mxPoint as="offset" />
          </mxGeometry>
        </mxCell>
        <mxCell id="BWKY8L1YfcoRBt6SnVh--60" value="указать тип" style="ellipse;whiteSpace=wrap;html=1;" vertex="1" parent="1">
          <mxGeometry x="149.9999999999999" y="970" width="120" height="80" as="geometry" />
        </mxCell>
        <mxCell id="BWKY8L1YfcoRBt6SnVh--61" value="уакзать количество" style="ellipse;whiteSpace=wrap;html=1;" vertex="1" parent="1">
          <mxGeometry x="339.9999999999999" y="970" width="120" height="80" as="geometry" />
        </mxCell>
        <mxCell id="BWKY8L1YfcoRBt6SnVh--62" value="заказать поставку" style="ellipse;whiteSpace=wrap;html=1;" vertex="1" parent="1">
          <mxGeometry x="370" y="700" width="120" height="80" as="geometry" />
        </mxCell>
        <mxCell id="BWKY8L1YfcoRBt6SnVh--63" style="rounded=0;orthogonalLoop=1;jettySize=auto;html=1;dashed=1;" edge="1" parent="1" source="BWKY8L1YfcoRBt6SnVh--62" target="BWKY8L1YfcoRBt6SnVh--18">
          <mxGeometry relative="1" as="geometry">
            <mxPoint x="752" y="880" as="sourcePoint" />
            <mxPoint x="650" y="914" as="targetPoint" />
          </mxGeometry>
        </mxCell>
        <mxCell id="BWKY8L1YfcoRBt6SnVh--64" value="&quot;include&quot;" style="edgeLabel;html=1;align=center;verticalAlign=middle;resizable=0;points=[];" vertex="1" connectable="0" parent="BWKY8L1YfcoRBt6SnVh--63">
          <mxGeometry x="-0.334" y="-2" relative="1" as="geometry">
            <mxPoint as="offset" />
          </mxGeometry>
        </mxCell>
        <mxCell id="BWKY8L1YfcoRBt6SnVh--65" style="rounded=0;orthogonalLoop=1;jettySize=auto;html=1;dashed=1;" edge="1" parent="1" source="BWKY8L1YfcoRBt6SnVh--62" target="BWKY8L1YfcoRBt6SnVh--69">
          <mxGeometry relative="1" as="geometry">
            <mxPoint x="578.0000000000001" y="1065" as="sourcePoint" />
          </mxGeometry>
        </mxCell>
        <mxCell id="BWKY8L1YfcoRBt6SnVh--66" value="&quot;include&quot;" style="edgeLabel;html=1;align=center;verticalAlign=middle;resizable=0;points=[];" vertex="1" connectable="0" parent="BWKY8L1YfcoRBt6SnVh--65">
          <mxGeometry x="-0.1185" y="-4" relative="1" as="geometry">
            <mxPoint as="offset" />
          </mxGeometry>
        </mxCell>
        <mxCell id="BWKY8L1YfcoRBt6SnVh--67" style="rounded=0;orthogonalLoop=1;jettySize=auto;html=1;dashed=1;" edge="1" parent="1" source="BWKY8L1YfcoRBt6SnVh--62" target="BWKY8L1YfcoRBt6SnVh--70">
          <mxGeometry relative="1" as="geometry">
            <mxPoint x="580.0000000000001" y="1098" as="sourcePoint" />
          </mxGeometry>
        </mxCell>
        <mxCell id="BWKY8L1YfcoRBt6SnVh--68" value="&quot;include&quot;" style="edgeLabel;html=1;align=center;verticalAlign=middle;resizable=0;points=[];" vertex="1" connectable="0" parent="BWKY8L1YfcoRBt6SnVh--67">
          <mxGeometry x="-0.334" y="-2" relative="1" as="geometry">
            <mxPoint as="offset" />
          </mxGeometry>
        </mxCell>
        <mxCell id="BWKY8L1YfcoRBt6SnVh--69" value="указать дату" style="ellipse;whiteSpace=wrap;html=1;" vertex="1" parent="1">
          <mxGeometry x="280" y="584" width="120" height="80" as="geometry" />
        </mxCell>
        <mxCell id="BWKY8L1YfcoRBt6SnVh--70" value="указать адрес" style="ellipse;whiteSpace=wrap;html=1;" vertex="1" parent="1">
          <mxGeometry x="145" y="680" width="120" height="80" as="geometry" />
        </mxCell>
        <mxCell id="BWKY8L1YfcoRBt6SnVh--71" value="посмотреть поставщиков" style="ellipse;whiteSpace=wrap;html=1;" vertex="1" parent="1">
          <mxGeometry x="600" y="420" width="120" height="80" as="geometry" />
        </mxCell>
        <mxCell id="BWKY8L1YfcoRBt6SnVh--72" style="edgeStyle=none;curved=1;rounded=0;orthogonalLoop=1;jettySize=auto;html=1;exitX=0.5;exitY=0.5;exitDx=0;exitDy=0;exitPerimeter=0;fontSize=12;startSize=8;endSize=8;endArrow=none;endFill=0;" edge="1" parent="1" source="BWKY8L1YfcoRBt6SnVh--16" target="BWKY8L1YfcoRBt6SnVh--71">
          <mxGeometry relative="1" as="geometry">
            <mxPoint x="639" y="530" as="sourcePoint" />
            <mxPoint x="545" y="711" as="targetPoint" />
          </mxGeometry>
        </mxCell>
        <mxCell id="BWKY8L1YfcoRBt6SnVh--73" value="сортировать поставщиков" style="ellipse;whiteSpace=wrap;html=1;" vertex="1" parent="1">
          <mxGeometry x="860" y="550" width="120" height="80" as="geometry" />
        </mxCell>
        <mxCell id="BWKY8L1YfcoRBt6SnVh--74" style="edgeStyle=none;curved=1;rounded=0;orthogonalLoop=1;jettySize=auto;html=1;exitX=0.5;exitY=0.5;exitDx=0;exitDy=0;exitPerimeter=0;fontSize=12;startSize=8;endSize=8;endArrow=none;endFill=0;" edge="1" parent="1" source="BWKY8L1YfcoRBt6SnVh--16" target="BWKY8L1YfcoRBt6SnVh--75">
          <mxGeometry relative="1" as="geometry">
            <mxPoint x="595" y="810" as="sourcePoint" />
          </mxGeometry>
        </mxCell>
        <mxCell id="BWKY8L1YfcoRBt6SnVh--75" value="фильтровать поставщиков" style="ellipse;whiteSpace=wrap;html=1;" vertex="1" parent="1">
          <mxGeometry x="500" y="980" width="120" height="80" as="geometry" />
        </mxCell>
        <mxCell id="BWKY8L1YfcoRBt6SnVh--76" style="edgeStyle=none;curved=1;rounded=0;orthogonalLoop=1;jettySize=auto;html=1;fontSize=12;startSize=8;endSize=8;endArrow=none;endFill=0;exitX=0.5;exitY=0.5;exitDx=0;exitDy=0;exitPerimeter=0;" edge="1" parent="1" source="BWKY8L1YfcoRBt6SnVh--16" target="BWKY8L1YfcoRBt6SnVh--77">
          <mxGeometry relative="1" as="geometry">
            <mxPoint x="695" y="850" as="sourcePoint" />
          </mxGeometry>
        </mxCell>
        <mxCell id="BWKY8L1YfcoRBt6SnVh--77" value="сортировать товар" style="ellipse;whiteSpace=wrap;html=1;" vertex="1" parent="1">
          <mxGeometry x="480" y="830" width="120" height="80" as="geometry" />
        </mxCell>
        <mxCell id="BWKY8L1YfcoRBt6SnVh--78" style="edgeStyle=none;curved=1;rounded=0;orthogonalLoop=1;jettySize=auto;html=1;exitX=0.5;exitY=0.5;exitDx=0;exitDy=0;exitPerimeter=0;fontSize=12;startSize=8;endSize=8;endArrow=none;endFill=0;" edge="1" parent="1" source="BWKY8L1YfcoRBt6SnVh--16" target="BWKY8L1YfcoRBt6SnVh--79">
          <mxGeometry relative="1" as="geometry">
            <mxPoint x="685" y="850" as="sourcePoint" />
          </mxGeometry>
        </mxCell>
        <mxCell id="BWKY8L1YfcoRBt6SnVh--79" value="фильтровать товар" style="ellipse;whiteSpace=wrap;html=1;" vertex="1" parent="1">
          <mxGeometry x="860" y="850" width="120" height="80" as="geometry" />
        </mxCell>
        <mxCell id="BWKY8L1YfcoRBt6SnVh--80" style="edgeStyle=none;curved=1;rounded=0;orthogonalLoop=1;jettySize=auto;html=1;exitX=0.5;exitY=0.5;exitDx=0;exitDy=0;exitPerimeter=0;fontSize=12;startSize=8;endSize=8;endArrow=none;endFill=0;" edge="1" parent="1" source="BWKY8L1YfcoRBt6SnVh--16" target="BWKY8L1YfcoRBt6SnVh--81">
          <mxGeometry relative="1" as="geometry">
            <mxPoint x="355" y="760" as="sourcePoint" />
          </mxGeometry>
        </mxCell>
        <mxCell id="BWKY8L1YfcoRBt6SnVh--81" value="управлять складом" style="ellipse;whiteSpace=wrap;html=1;" vertex="1" parent="1">
          <mxGeometry x="960" y="710" width="120" height="80" as="geometry" />
        </mxCell>
        <mxCell id="BWKY8L1YfcoRBt6SnVh--82" style="rounded=0;orthogonalLoop=1;jettySize=auto;html=1;dashed=1;" edge="1" parent="1" source="BWKY8L1YfcoRBt6SnVh--81" target="BWKY8L1YfcoRBt6SnVh--86">
          <mxGeometry relative="1" as="geometry">
            <mxPoint x="300.0000000000001" y="766" as="sourcePoint" />
          </mxGeometry>
        </mxCell>
        <mxCell id="BWKY8L1YfcoRBt6SnVh--83" value="&quot;include&quot;" style="edgeLabel;html=1;align=center;verticalAlign=middle;resizable=0;points=[];" vertex="1" connectable="0" parent="BWKY8L1YfcoRBt6SnVh--82">
          <mxGeometry x="-0.1185" y="-4" relative="1" as="geometry">
            <mxPoint as="offset" />
          </mxGeometry>
        </mxCell>
        <mxCell id="BWKY8L1YfcoRBt6SnVh--84" style="rounded=0;orthogonalLoop=1;jettySize=auto;html=1;dashed=1;" edge="1" parent="1" source="BWKY8L1YfcoRBt6SnVh--81" target="BWKY8L1YfcoRBt6SnVh--87">
          <mxGeometry relative="1" as="geometry">
            <mxPoint x="282.0000000000001" y="792" as="sourcePoint" />
          </mxGeometry>
        </mxCell>
        <mxCell id="BWKY8L1YfcoRBt6SnVh--85" value="&quot;include&quot;" style="edgeLabel;html=1;align=center;verticalAlign=middle;resizable=0;points=[];" vertex="1" connectable="0" parent="BWKY8L1YfcoRBt6SnVh--84">
          <mxGeometry x="-0.334" y="-2" relative="1" as="geometry">
            <mxPoint as="offset" />
          </mxGeometry>
        </mxCell>
        <mxCell id="BWKY8L1YfcoRBt6SnVh--86" value="добавить товар на склад" style="ellipse;whiteSpace=wrap;html=1;" vertex="1" parent="1">
          <mxGeometry x="1090" y="550" width="120" height="80" as="geometry" />
        </mxCell>
        <mxCell id="BWKY8L1YfcoRBt6SnVh--87" value="удалить товар со склада" style="ellipse;whiteSpace=wrap;html=1;" vertex="1" parent="1">
          <mxGeometry x="1090" y="920" width="120" height="80" as="geometry" />
        </mxCell>
        <mxCell id="BWKY8L1YfcoRBt6SnVh--88" value="ввести наименование" style="ellipse;whiteSpace=wrap;html=1;" vertex="1" parent="1">
          <mxGeometry x="1310" y="410" width="120" height="80" as="geometry" />
        </mxCell>
        <mxCell id="BWKY8L1YfcoRBt6SnVh--89" style="rounded=0;orthogonalLoop=1;jettySize=auto;html=1;dashed=1;" edge="1" parent="1" source="BWKY8L1YfcoRBt6SnVh--86" target="BWKY8L1YfcoRBt6SnVh--88">
          <mxGeometry relative="1" as="geometry">
            <mxPoint x="1298" y="359" as="sourcePoint" />
            <mxPoint x="1382" y="291" as="targetPoint" />
          </mxGeometry>
        </mxCell>
        <mxCell id="BWKY8L1YfcoRBt6SnVh--90" value="&quot;include&quot;" style="edgeLabel;html=1;align=center;verticalAlign=middle;resizable=0;points=[];" vertex="1" connectable="0" parent="BWKY8L1YfcoRBt6SnVh--89">
          <mxGeometry x="-0.334" y="-2" relative="1" as="geometry">
            <mxPoint as="offset" />
          </mxGeometry>
        </mxCell>
        <mxCell id="BWKY8L1YfcoRBt6SnVh--91" style="rounded=0;orthogonalLoop=1;jettySize=auto;html=1;dashed=1;" edge="1" parent="1" source="BWKY8L1YfcoRBt6SnVh--86" target="BWKY8L1YfcoRBt6SnVh--96">
          <mxGeometry relative="1" as="geometry">
            <mxPoint x="1272" y="351" as="sourcePoint" />
          </mxGeometry>
        </mxCell>
        <mxCell id="BWKY8L1YfcoRBt6SnVh--92" value="&quot;include&quot;" style="edgeLabel;html=1;align=center;verticalAlign=middle;resizable=0;points=[];" vertex="1" connectable="0" parent="BWKY8L1YfcoRBt6SnVh--91">
          <mxGeometry x="-0.1185" y="-4" relative="1" as="geometry">
            <mxPoint as="offset" />
          </mxGeometry>
        </mxCell>
        <mxCell id="BWKY8L1YfcoRBt6SnVh--93" style="rounded=0;orthogonalLoop=1;jettySize=auto;html=1;dashed=1;" edge="1" parent="1" source="BWKY8L1YfcoRBt6SnVh--86" target="BWKY8L1YfcoRBt6SnVh--95">
          <mxGeometry relative="1" as="geometry">
            <mxPoint x="1245" y="351" as="sourcePoint" />
          </mxGeometry>
        </mxCell>
        <mxCell id="BWKY8L1YfcoRBt6SnVh--94" value="&quot;include&quot;" style="edgeLabel;html=1;align=center;verticalAlign=middle;resizable=0;points=[];" vertex="1" connectable="0" parent="BWKY8L1YfcoRBt6SnVh--93">
          <mxGeometry x="-0.1185" y="-4" relative="1" as="geometry">
            <mxPoint as="offset" />
          </mxGeometry>
        </mxCell>
        <mxCell id="BWKY8L1YfcoRBt6SnVh--95" value="ввести количество" style="ellipse;whiteSpace=wrap;html=1;" vertex="1" parent="1">
          <mxGeometry x="980" y="360" width="120" height="80" as="geometry" />
        </mxCell>
        <mxCell id="BWKY8L1YfcoRBt6SnVh--96" value="ввести характеристики товара" style="ellipse;whiteSpace=wrap;html=1;" vertex="1" parent="1">
          <mxGeometry x="1140" y="340" width="120" height="80" as="geometry" />
        </mxCell>
        <mxCell id="BWKY8L1YfcoRBt6SnVh--97" style="edgeStyle=none;curved=1;rounded=0;orthogonalLoop=1;jettySize=auto;html=1;fontSize=12;startSize=8;endSize=8;endArrow=none;endFill=0;exitX=0.5;exitY=0.5;exitDx=0;exitDy=0;exitPerimeter=0;" edge="1" parent="1" source="BWKY8L1YfcoRBt6SnVh--16" target="BWKY8L1YfcoRBt6SnVh--62">
          <mxGeometry relative="1" as="geometry">
            <mxPoint x="700" y="630" as="sourcePoint" />
            <mxPoint x="590" y="711" as="targetPoint" />
          </mxGeometry>
        </mxCell>
        <mxCell id="BWKY8L1YfcoRBt6SnVh--98" value="ввести дату добавления" style="ellipse;whiteSpace=wrap;html=1;" vertex="1" parent="1">
          <mxGeometry x="1330" y="550" width="120" height="80" as="geometry" />
        </mxCell>
        <mxCell id="BWKY8L1YfcoRBt6SnVh--99" style="rounded=0;orthogonalLoop=1;jettySize=auto;html=1;dashed=1;" edge="1" parent="1" source="BWKY8L1YfcoRBt6SnVh--86" target="BWKY8L1YfcoRBt6SnVh--98">
          <mxGeometry relative="1" as="geometry">
            <mxPoint x="1530" y="449" as="sourcePoint" />
            <mxPoint x="1614" y="381" as="targetPoint" />
          </mxGeometry>
        </mxCell>
        <mxCell id="BWKY8L1YfcoRBt6SnVh--100" value="&quot;include&quot;" style="edgeLabel;html=1;align=center;verticalAlign=middle;resizable=0;points=[];" vertex="1" connectable="0" parent="BWKY8L1YfcoRBt6SnVh--99">
          <mxGeometry x="-0.334" y="-2" relative="1" as="geometry">
            <mxPoint as="offset" />
          </mxGeometry>
        </mxCell>
        <mxCell id="BWKY8L1YfcoRBt6SnVh--101" value="сортировать товар" style="ellipse;whiteSpace=wrap;html=1;" vertex="1" parent="1">
          <mxGeometry x="1280" y="770" width="120" height="80" as="geometry" />
        </mxCell>
        <mxCell id="BWKY8L1YfcoRBt6SnVh--102" value="фильтровать товар" style="ellipse;whiteSpace=wrap;html=1;" vertex="1" parent="1">
          <mxGeometry x="1320" y="920" width="120" height="80" as="geometry" />
        </mxCell>
        <mxCell id="BWKY8L1YfcoRBt6SnVh--103" style="edgeStyle=none;curved=1;rounded=0;orthogonalLoop=1;jettySize=auto;html=1;exitX=0;exitY=0.5;exitDx=0;exitDy=0;fontSize=12;startSize=8;endSize=8;" edge="1" parent="1" source="BWKY8L1YfcoRBt6SnVh--87" target="BWKY8L1YfcoRBt6SnVh--87">
          <mxGeometry relative="1" as="geometry" />
        </mxCell>
        <mxCell id="BWKY8L1YfcoRBt6SnVh--104" value="списать товар" style="ellipse;whiteSpace=wrap;html=1;" vertex="1" parent="1">
          <mxGeometry x="1200" y="640" width="120" height="80" as="geometry" />
        </mxCell>
        <mxCell id="BWKY8L1YfcoRBt6SnVh--105" style="rounded=0;orthogonalLoop=1;jettySize=auto;html=1;dashed=1;" edge="1" parent="1" source="BWKY8L1YfcoRBt6SnVh--81" target="BWKY8L1YfcoRBt6SnVh--104">
          <mxGeometry relative="1" as="geometry">
            <mxPoint x="1190" y="872" as="sourcePoint" />
            <mxPoint x="1224" y="770" as="targetPoint" />
          </mxGeometry>
        </mxCell>
        <mxCell id="BWKY8L1YfcoRBt6SnVh--106" value="&quot;include&quot;" style="edgeLabel;html=1;align=center;verticalAlign=middle;resizable=0;points=[];" vertex="1" connectable="0" parent="BWKY8L1YfcoRBt6SnVh--105">
          <mxGeometry x="-0.1185" y="-4" relative="1" as="geometry">
            <mxPoint as="offset" />
          </mxGeometry>
        </mxCell>
        <mxCell id="BWKY8L1YfcoRBt6SnVh--107" style="rounded=0;orthogonalLoop=1;jettySize=auto;html=1;dashed=1;" edge="1" parent="1" source="BWKY8L1YfcoRBt6SnVh--81" target="BWKY8L1YfcoRBt6SnVh--101">
          <mxGeometry relative="1" as="geometry">
            <mxPoint x="1170" y="962" as="sourcePoint" />
            <mxPoint x="1204" y="860" as="targetPoint" />
          </mxGeometry>
        </mxCell>
        <mxCell id="BWKY8L1YfcoRBt6SnVh--108" value="&quot;include&quot;" style="edgeLabel;html=1;align=center;verticalAlign=middle;resizable=0;points=[];" vertex="1" connectable="0" parent="BWKY8L1YfcoRBt6SnVh--107">
          <mxGeometry x="-0.1185" y="-4" relative="1" as="geometry">
            <mxPoint as="offset" />
          </mxGeometry>
        </mxCell>
        <mxCell id="BWKY8L1YfcoRBt6SnVh--109" style="rounded=0;orthogonalLoop=1;jettySize=auto;html=1;dashed=1;" edge="1" parent="1" source="BWKY8L1YfcoRBt6SnVh--81" target="BWKY8L1YfcoRBt6SnVh--102">
          <mxGeometry relative="1" as="geometry">
            <mxPoint x="1460" y="922" as="sourcePoint" />
            <mxPoint x="1494" y="820" as="targetPoint" />
          </mxGeometry>
        </mxCell>
        <mxCell id="BWKY8L1YfcoRBt6SnVh--110" value="&quot;include&quot;" style="edgeLabel;html=1;align=center;verticalAlign=middle;resizable=0;points=[];" vertex="1" connectable="0" parent="BWKY8L1YfcoRBt6SnVh--109">
          <mxGeometry x="-0.1185" y="-4" relative="1" as="geometry">
            <mxPoint as="offset" />
          </mxGeometry>
        </mxCell>
        <mxCell id="BWKY8L1YfcoRBt6SnVh--111" value="администратор" style="shape=umlActor;verticalLabelPosition=bottom;verticalAlign=top;html=1;outlineConnect=0;" vertex="1" parent="1">
          <mxGeometry x="1226" y="220" width="30" height="60" as="geometry" />
        </mxCell>
        <mxCell id="BWKY8L1YfcoRBt6SnVh--112" value="управлять базой данных" style="ellipse;whiteSpace=wrap;html=1;" vertex="1" parent="1">
          <mxGeometry x="1320" y="209.99574298972018" width="120" height="80" as="geometry" />
        </mxCell>
        <mxCell id="BWKY8L1YfcoRBt6SnVh--113" style="rounded=0;orthogonalLoop=1;jettySize=auto;html=1;exitX=0.5;exitY=0.5;exitDx=0;exitDy=0;exitPerimeter=0;endArrow=none;endFill=0;" edge="1" parent="1" target="BWKY8L1YfcoRBt6SnVh--112" source="BWKY8L1YfcoRBt6SnVh--111">
          <mxGeometry relative="1" as="geometry">
            <mxPoint x="1360" y="288.8457429897202" as="sourcePoint" />
          </mxGeometry>
        </mxCell>
      </root>
    </mxGraphModel>
  </diagram>
</mxfile>
